# xmcd CD database file
#
# Track frame offsets:
#	150
#	13375
#	30571
#	42858
#	58418
#	70983
#	84725
#	104543
#	122815
#	135460
#	150399
#	166475
#	180868
#
# Disc length: 2568 seconds
#
# Revision: 0
# Processed by: cddbd v1.5.2PL0 Copyright (c) Steve Scherf et al.
# Submitted via: CDex 1.70beta2
#
DISCID=ad0a060d
DTITLE=Sonny Landreth - Prodigal Son
DYEAR=2004
DGENRE=Blues
TTITLE0=Good Enough For Me
TTITLE1=Rise Shining
TTITLE2=Baby Ain't That Love
TTITLE3=Lazy Boy
TTITLE4=The Only One
TTITLE5=You're Why I'm So Lonely
TTITLE6=Lookin' For A Good Time
TTITLE7=I Know You Rider
TTITLE8=Country Blues
TTITLE9=Don't Cry For Me
TTITLE10=She Left Me A Mule
TTITLE11=Forever Lillie Mae
TTITLE12=That's The Way It's Gonna Be
EXTD=YEAR: 2004
EXTT0=
EXTT1=
EXTT2=
EXTT3=
EXTT4=
EXTT5=
EXTT6=
EXTT7=
EXTT8=
EXTT9=
EXTT10=
EXTT11=
EXTT12=
PLAYORDER=
